<svg width="390" height="186" viewBox="0 0 390 186" fill="none" xmlns="http://www.w3.org/2000/svg">
<rect width="390" height="186" fill="url(#paint0_linear_19_159)" fill-opacity="0.97"/>
<path d="M139.406 99.6367V87.7891C139.406 86.4531 139.898 85.1406 140.883 83.8516C142.266 82.0938 144.129 81.2148 146.473 81.2148V82.5508C144.293 82.5508 142.652 83.4766 141.551 85.3281C141.059 86.1953 140.812 87.0156 140.812 87.7891V99.6367C140.812 100.785 141.281 101.887 142.219 102.941C143.32 104.184 144.738 104.816 146.473 104.84V106.176C143.73 106.176 141.691 105.051 140.355 102.801C139.723 101.699 139.406 100.645 139.406 99.6367ZM148.055 106.176V104.84C148.055 104.84 148.488 104.77 149.355 104.629C151.371 104.066 152.66 102.895 153.223 101.113C153.27 100.926 153.352 100.551 153.469 99.9883C153.516 99.5664 153.539 99.3438 153.539 99.3203L154.734 99.6016C154.734 101.641 153.902 103.328 152.238 104.664C150.973 105.672 149.578 106.176 148.055 106.176ZM148.055 82.5508V81.2148C149.859 81.1914 151.465 81.9414 152.871 83.4648C154.113 84.8008 154.734 86.2656 154.734 87.8594L153.469 88.1758C153.469 87.918 153.457 87.7188 153.434 87.5781C153.387 87.2734 153.316 86.9688 153.223 86.6641C152.965 85.9141 152.602 85.2578 152.133 84.6953C151.688 84.1328 151.23 83.7227 150.762 83.4648C150.316 83.1836 149.883 82.9727 149.461 82.832C149.039 82.6914 148.699 82.6094 148.441 82.5859L148.055 82.5508ZM157.477 101.043V92.7812C157.477 91.7031 157.969 90.6602 158.953 89.6523C160.102 88.457 161.531 87.8594 163.242 87.8594V89.1953C161.602 89.1953 160.348 89.8984 159.48 91.3047C159.082 91.9609 158.883 92.6055 158.883 93.2383V100.586C158.883 101.523 159.34 102.449 160.254 103.363C161.145 104.254 162.141 104.699 163.242 104.699V106.035C161.086 106.035 159.434 105.168 158.285 103.434C157.746 102.59 157.477 101.793 157.477 101.043ZM164.684 106.035V104.699C166.184 104.699 167.367 104.008 168.234 102.625C168.656 101.945 168.867 101.289 168.867 100.656V93.2383C168.867 92.207 168.422 91.2461 167.531 90.3555C166.711 89.582 165.762 89.1953 164.684 89.1953V87.8594C166.77 87.8594 168.363 88.7148 169.465 90.4258C170.004 91.2461 170.273 92.0312 170.273 92.7812V101.043C170.273 102.145 169.793 103.211 168.832 104.242C167.73 105.414 166.348 106.012 164.684 106.035ZM172.945 106V92.7461C172.945 91.6445 173.449 90.5781 174.457 89.5469C175.629 88.3516 177.07 87.7539 178.781 87.7539V89.1602C177.422 89.1602 176.262 89.6875 175.301 90.7422C174.668 91.4453 174.352 92.1719 174.352 92.9219V106H172.945ZM180.258 89.1602V87.7539C182.367 87.7539 184.008 88.6094 185.18 90.3203C185.789 91.1875 186.094 91.9961 186.094 92.7461V106H184.688V92.9219C184.688 92.1484 184.289 91.3516 183.492 90.5312C182.578 89.6406 181.5 89.1836 180.258 89.1602ZM188.133 89.6523V88.2812H190.348V81.3906H191.754V88.2812H193.969V89.6523H191.754V100.41C191.754 102.473 192.398 103.773 193.688 104.312C194.297 104.547 195.047 104.664 195.938 104.664H195.973L196.289 106H195.762C192.949 105.977 191.25 104.898 190.664 102.766C190.453 102.039 190.348 101.148 190.348 100.094V89.6523H188.133ZM197.695 101.746V100.129C197.719 98.6055 198.293 97.5508 199.418 96.9648C199.84 96.7539 201.492 96.3086 204.375 95.6289C207.328 94.9492 208.816 94.3398 208.84 93.8008V93.2383C208.84 91.6211 208.137 90.4023 206.73 89.582C206.074 89.207 205.418 89.0195 204.762 89.0195V87.7539C206.941 87.7539 208.535 88.6562 209.543 90.4609C210.035 91.3516 210.281 92.3008 210.281 93.3086V103.398C210.375 104.125 210.68 104.523 211.195 104.594V105.965C210.258 105.965 209.531 105.578 209.016 104.805C208.969 104.734 208.922 104.676 208.875 104.629C208.102 105.402 206.883 105.848 205.219 105.965C205.055 105.965 204.902 105.965 204.762 105.965V104.629C207.48 104.582 208.852 103.293 208.875 100.762V95.7344C208.219 96.0859 206.473 96.5664 203.637 97.1758C201.34 97.6914 199.969 98.1719 199.523 98.6172C199.266 98.8984 199.137 99.3555 199.137 99.9883V101.359C199.16 102.93 199.992 103.949 201.633 104.418C202.125 104.559 202.641 104.629 203.18 104.629V105.965C201.117 105.965 199.559 105.285 198.504 103.926C197.965 103.223 197.695 102.496 197.695 101.746ZM197.941 92.3242C197.918 90.8477 198.621 89.6406 200.051 88.7031C201.035 88.0703 202.078 87.7539 203.18 87.7539V89.0898C201.867 89.0898 200.812 89.6055 200.016 90.6367C199.5 91.293 199.242 92.0195 199.242 92.8164L197.941 92.3242ZM214.008 101.043C214.008 102.285 214.477 103.398 215.414 104.383C216.469 105.461 217.863 106 219.598 106V104.664C218.145 104.664 216.984 104.043 216.117 102.801C215.672 102.191 215.449 101.605 215.449 101.043V93.0273C215.449 92.0195 215.918 91.1055 216.855 90.2852C217.676 89.5586 218.602 89.1953 219.633 89.1953V87.8594C217.5 87.8594 215.895 88.6914 214.816 90.3555C214.277 91.2227 214.008 92.0781 214.008 92.9219V101.043ZM221.18 89.2305C222.398 89.2305 223.395 89.7344 224.168 90.7422C224.59 91.3516 224.848 92.0547 224.941 92.8516C224.965 92.9922 224.977 93.1797 224.977 93.4141L226.348 92.9219C226.348 91.2578 225.668 89.9219 224.309 88.9141C223.371 88.2109 222.328 87.8594 221.18 87.8594V89.2305ZM221.145 106.035C222.809 106.035 224.227 105.402 225.398 104.137C226.289 103.176 226.734 102.109 226.734 100.938L225.363 100.41C225.363 100.621 225.352 100.785 225.328 100.902C225.164 102.262 224.473 103.316 223.254 104.066C222.551 104.488 221.848 104.699 221.145 104.699V106.035ZM228.492 89.6523V88.2812H230.707V81.3906H232.113V88.2812H234.328V89.6523H232.113V100.41C232.113 102.473 232.758 103.773 234.047 104.312C234.656 104.547 235.406 104.664 236.297 104.664H236.332L236.648 106H236.121C233.309 105.977 231.609 104.898 231.023 102.766C230.812 102.039 230.707 101.148 230.707 100.094V89.6523H228.492ZM237.984 101.043V92.7812C237.984 91.7031 238.477 90.6602 239.461 89.6523C240.609 88.457 242.039 87.8594 243.75 87.8594V89.1953C242.109 89.1953 240.855 89.8984 239.988 91.3047C239.59 91.9609 239.391 92.6055 239.391 93.2383V100.586C239.391 101.523 239.848 102.449 240.762 103.363C241.652 104.254 242.648 104.699 243.75 104.699V106.035C241.594 106.035 239.941 105.168 238.793 103.434C238.254 102.59 237.984 101.793 237.984 101.043ZM245.191 106.035V104.699C246.691 104.699 247.875 104.008 248.742 102.625C249.164 101.945 249.375 101.289 249.375 100.656V93.2383C249.375 92.207 248.93 91.2461 248.039 90.3555C247.219 89.582 246.27 89.1953 245.191 89.1953V87.8594C247.277 87.8594 248.871 88.7148 249.973 90.4258C250.512 91.2461 250.781 92.0312 250.781 92.7812V101.043C250.781 102.145 250.301 103.211 249.34 104.242C248.238 105.414 246.855 106.012 245.191 106.035Z" fill="white"/>
<defs>
<linearGradient id="paint0_linear_19_159" x1="-2.90573e-06" y1="93" x2="390" y2="93" gradientUnits="userSpaceOnUse">
<stop stop-color="#8372A1"/>
<stop offset="0.714689" stop-color="#7994B0"/>
<stop offset="0.866091" stop-color="#72AEBB"/>
<stop offset="1" stop-color="#6BC5C5"/>
</linearGradient>
</defs>
</svg>
